<svg width="40" height="40" viewBox="0 0 40 40" fill="none" xmlns="http://www.w3.org/2000/svg">
<path d="M32.4744 28.2791C32.2727 28.2791 32.084 28.2444 31.9083 28.1748C31.7326 28.1052 31.5472 28.0045 31.3519 27.8727L21.4061 21.2814C21.0613 21.0544 20.8092 20.8036 20.6497 20.5289C20.4903 20.2543 20.4106 19.9595 20.4106 19.6446C20.4106 19.3297 20.4886 19.0368 20.6448 18.7658C20.801 18.4948 21.0548 18.2458 21.4061 18.0188L31.3519 11.4275C31.5472 11.2957 31.7326 11.195 31.9083 11.1254C32.084 11.0559 32.2727 11.0211 32.4744 11.0211C32.8583 11.0211 33.1885 11.1822 33.4651 11.5044C33.7416 11.8267 33.8799 12.2917 33.8799 12.8996V26.4006C33.8799 27.0085 33.7416 27.4736 33.4651 27.7957C33.1885 28.118 32.8583 28.2791 32.4744 28.2791ZM19.0637 28.2791C18.8619 28.2791 18.6732 28.2444 18.4976 28.1748C18.3219 28.1052 18.1364 28.0045 17.9412 27.8727L7.99546 21.2814C7.65057 21.0544 7.39841 20.8036 7.23896 20.5289C7.07958 20.2543 6.99989 19.9595 6.99989 19.6446C6.99989 19.3297 7.07795 19.0368 7.23407 18.7658C7.39025 18.4948 7.64404 18.2458 7.99546 18.0188L17.9412 11.4275C18.1364 11.2957 18.3219 11.195 18.4976 11.1254C18.6732 11.0559 18.8619 11.0211 19.0637 11.0211C19.4476 11.0211 19.7778 11.1822 20.0543 11.5044C20.3309 11.8267 20.4691 12.2917 20.4691 12.8996V26.4006C20.4691 27.0085 20.3309 27.4736 20.0543 27.7957C19.7778 28.118 19.4476 28.2791 19.0637 28.2791Z" fill="#FDFBFA" fill-opacity="0.85"/>
</svg>
