<svg width="49" height="49" viewBox="0 0 49 49" fill="none" xmlns="http://www.w3.org/2000/svg">
<path d="M37.3272 42.3409C35.6213 42.3409 33.9537 41.8351 32.5354 40.8874C31.117 39.9396 30.0115 38.5926 29.3587 37.0166C28.7059 35.4406 28.5351 33.7064 28.8679 32.0333C29.2007 30.3602 30.0221 28.8234 31.2284 27.6171C32.4346 26.4109 33.9714 25.5895 35.6445 25.2567C37.3176 24.9239 39.0518 25.0947 40.6278 25.7475C42.2038 26.4003 43.5509 27.5058 44.4986 28.9242C45.4463 30.3425 45.9522 32.0101 45.9522 33.7159C45.9497 36.0027 45.0402 38.195 43.4232 39.812C41.8062 41.429 39.6139 42.3385 37.3272 42.3409ZM37.3272 28.0909C36.2146 28.0909 35.1271 28.4208 34.2021 29.0389C33.277 29.657 32.5561 30.5355 32.1303 31.5634C31.7046 32.5912 31.5932 33.7222 31.8102 34.8133C32.0273 35.9045 32.563 36.9068 33.3497 37.6934C34.1363 38.4801 35.1386 39.0158 36.2298 39.2329C37.3209 39.4499 38.4519 39.3385 39.4797 38.9128C40.5076 38.487 41.3861 37.7661 42.0042 36.841C42.6223 35.916 42.9522 34.8285 42.9522 33.7159C42.9504 32.2246 42.3572 30.7949 41.3027 29.7404C40.2482 28.6859 38.8185 28.0927 37.3272 28.0909Z" fill="white"/>
<path d="M12.5772 42.3409C10.8713 42.3409 9.20373 41.8351 7.78536 40.8874C6.36698 39.9396 5.2615 38.5926 4.60869 37.0166C3.95589 35.4406 3.78508 33.7064 4.11788 32.0333C4.45068 30.3602 5.27213 28.8234 6.47836 27.6171C7.68458 26.4109 9.22141 25.5895 10.8945 25.2567C12.5676 24.9239 14.3018 25.0947 15.8778 25.7475C17.4538 26.4003 18.8009 27.5058 19.7486 28.9242C20.6963 30.3425 21.2022 32.0101 21.2022 33.7159C21.1997 36.0027 20.2902 38.195 18.6732 39.812C17.0562 41.429 14.8639 42.3385 12.5772 42.3409ZM12.5772 28.0909C11.4646 28.0909 10.3771 28.4208 9.45207 29.0389C8.52704 29.657 7.80607 30.5355 7.38033 31.5634C6.95459 32.5912 6.84319 33.7222 7.06024 34.8133C7.27728 35.9045 7.81301 36.9068 8.59968 37.6934C9.38635 38.4801 10.3886 39.0158 11.4798 39.2329C12.5709 39.4499 13.7019 39.3385 14.7297 38.9128C15.7576 38.487 16.6361 37.7661 17.2542 36.841C17.8723 35.916 18.2022 34.8285 18.2022 33.7159C18.2004 32.2246 17.6072 30.7949 16.5527 29.7404C15.4982 28.6859 14.0685 28.0927 12.5772 28.0909Z" fill="white"/>
<path d="M30.9526 12.3409C31.3477 12.3423 31.7392 12.2653 32.1044 12.1144C32.4696 11.9636 32.8013 11.7418 33.0803 11.462C33.3592 11.1821 33.58 10.8498 33.7297 10.4841C33.8794 10.1184 33.9552 9.72667 33.9526 9.33154C33.9569 8.93838 33.8829 8.5483 33.7347 8.1841C33.5866 7.81989 33.3673 7.48889 33.0897 7.21043C32.8121 6.93197 32.4818 6.71165 32.1181 6.56235C31.7543 6.41306 31.3645 6.33777 30.9713 6.34091C30.5773 6.33968 30.187 6.41606 29.8225 6.56569C29.4581 6.71531 29.1267 6.93526 28.8472 7.21297C28.5678 7.49067 28.3458 7.8207 28.1939 8.1842C28.042 8.54771 27.9632 8.93757 27.9619 9.33154C27.9607 9.72551 28.0371 10.1159 28.1867 10.4803C28.3363 10.8448 28.5563 11.1762 28.834 11.4556C29.1117 11.7351 29.4417 11.9571 29.8052 12.109C30.1687 12.2609 30.5586 12.3397 30.9526 12.3409Z" fill="white"/>
<path d="M35.41 18.3409H31.3075C31.2402 18.341 31.1741 18.3229 31.1162 18.2886C31.0583 18.2542 31.0107 18.205 30.9784 18.1459L28.0028 12.6925C27.7931 12.2872 27.491 11.937 27.1208 11.6702C26.7507 11.4034 26.3229 11.2275 25.8721 11.1568C25.4213 11.086 24.9602 11.1224 24.5261 11.263C24.092 11.4036 23.6971 11.6444 23.3734 11.9659L16.824 18.5659C16.2738 19.1275 15.9615 19.8798 15.9521 20.6659C15.9521 22.2972 17.1334 22.8784 17.6865 23.2066C20.3584 24.7459 22.24 25.8719 23.2721 26.4972C23.327 26.5306 23.3724 26.5775 23.4039 26.6335C23.4354 26.6895 23.452 26.7526 23.4521 26.8169V33.2969C23.4521 34.1041 24.0728 34.7969 24.88 34.8372C25.0826 34.847 25.2851 34.8155 25.4753 34.7447C25.6655 34.674 25.8393 34.5654 25.9862 34.4255C26.1332 34.2856 26.2503 34.1174 26.3304 33.931C26.4104 33.7446 26.4519 33.5438 26.4521 33.3409V25.2784C26.4523 25.0403 26.3957 24.8056 26.2872 24.5937C26.1786 24.3817 26.0211 24.1987 25.8278 24.0597L22.359 21.565C22.3155 21.5339 22.2791 21.4937 22.2524 21.4474C22.2256 21.401 22.2091 21.3494 22.204 21.2961C22.1988 21.2428 22.2051 21.1891 22.2225 21.1384C22.2399 21.0878 22.2679 21.0414 22.3046 21.0025L26.2421 16.8034C26.2825 16.7602 26.3325 16.7272 26.3881 16.707C26.4437 16.6868 26.5032 16.6801 26.5619 16.6873C26.6206 16.6945 26.6768 16.7155 26.7258 16.7486C26.7748 16.7816 26.8153 16.8258 26.844 16.8775L28.8896 20.5694C29.0197 20.8034 29.2099 20.9984 29.4407 21.1341C29.6715 21.2697 29.9344 21.3412 30.2021 21.3409H35.4521C35.6554 21.3412 35.8565 21.3001 36.0434 21.2203C36.2302 21.1404 36.3989 21.0234 36.5392 20.8764C36.6794 20.7294 36.7884 20.5554 36.8594 20.365C36.9304 20.1746 36.9619 19.9717 36.9521 19.7688C36.9128 18.9616 36.2171 18.3409 35.41 18.3409Z" fill="white"/>
</svg>
