<svg width="13" height="7" viewBox="0 0 13 7" fill="none" xmlns="http://www.w3.org/2000/svg">
<path d="M12.7712 0.274163C12.9318 0.432806 13.0078 0.641039 12.9994 0.898863C12.991 1.15661 12.9022 1.36878 12.7331 1.53538L7.74919 6.49727C7.52938 6.71938 7.26727 6.86812 6.96288 6.94348C6.65852 7.01884 6.35416 7.01884 6.0498 6.94348C5.74543 6.86812 5.48334 6.71938 5.26352 6.49727L0.292258 1.53538C0.106261 1.35294 0.00903413 1.14077 0.000575817 0.898863C-0.00787384 0.656879 0.0766705 0.452585 0.254208 0.285982C0.431755 0.103539 0.655801 0.00837851 0.926346 0.000499249C1.19689 -0.00746107 1.42517 0.0797796 1.61117 0.262222L6.50634 5.15269L11.4141 0.262222C11.5917 0.0877404 11.8158 0.000499249 12.0863 0.000499249C12.3568 0.000499249 12.5851 0.0917206 12.7712 0.274163Z" fill="#D7D7D7"/>
</svg>
