<svg width="40" height="40" viewBox="0 0 40 40" fill="none" xmlns="http://www.w3.org/2000/svg">
<path d="M8.40549 28.2791C8.6072 28.2791 8.7959 28.2444 8.9716 28.1748C9.14728 28.1052 9.33273 28.0045 9.52794 27.8727L19.4738 21.2814C19.8186 21.0544 20.0707 20.8036 20.2302 20.5289C20.3896 20.2543 20.4693 19.9595 20.4693 19.6446C20.4693 19.3297 20.3912 19.0368 20.2351 18.7658C20.0789 18.4948 19.8251 18.2458 19.4738 18.0188L9.52794 11.4275C9.33273 11.2957 9.14728 11.195 8.9716 11.1254C8.7959 11.0559 8.6072 11.0211 8.40549 11.0211C8.02158 11.0211 7.69136 11.1822 7.41482 11.5044C7.13827 11.8267 7 12.2917 7 12.8996V26.4006C7 27.0085 7.13827 27.4736 7.41482 27.7957C7.69136 28.118 8.02158 28.2791 8.40549 28.2791ZM21.8162 28.2791C22.018 28.2791 22.2067 28.2444 22.3823 28.1748C22.558 28.1052 22.7435 28.0045 22.9387 27.8727L32.8844 21.2814C33.2293 21.0544 33.4815 20.8036 33.6409 20.5289C33.8003 20.2543 33.88 19.9595 33.88 19.6446C33.88 19.3297 33.8019 19.0368 33.6458 18.7658C33.4896 18.4948 33.2358 18.2458 32.8844 18.0188L22.9387 11.4275C22.7435 11.2957 22.558 11.195 22.3823 11.1254C22.2067 11.0559 22.018 11.0211 21.8162 11.0211C21.4323 11.0211 21.1021 11.1822 20.8255 11.5044C20.549 11.8267 20.4108 12.2917 20.4108 12.8996V26.4006C20.4108 27.0085 20.549 27.4736 20.8255 27.7957C21.1021 28.118 21.4323 28.2791 21.8162 28.2791Z" fill="#FDFBFA" fill-opacity="0.85"/>
</svg>
