<svg width="48" height="47" viewBox="0 0 48 47" fill="none" xmlns="http://www.w3.org/2000/svg">
<path d="M14 20.4507C14 20.0505 14.2037 19.6751 14.5466 19.4432L22.9966 13.7288C23.4477 13.4237 24.0523 13.4237 24.5034 13.7288L32.9534 19.4432C33.2963 19.6751 33.5 20.0505 33.5 20.4507V31.1456C33.5 32.1697 32.627 33 31.55 33H15.95C14.873 33 14 32.1697 14 31.1456V20.4507Z" stroke="white" stroke-width="2"/>
<path d="M26.1875 24.4688C26.1875 25.8149 25.0962 26.9062 23.75 26.9062C22.4038 26.9062 21.3125 25.8149 21.3125 24.4688C21.3125 23.1226 22.4038 22.0312 23.75 22.0312C25.0962 22.0312 26.1875 23.1226 26.1875 24.4688Z" stroke="white" stroke-width="2"/>
</svg>
