<svg width="53" height="53" viewBox="0 0 53 53" fill="none" xmlns="http://www.w3.org/2000/svg">
<path d="M22.2349 35.5636L24.746 32.567C24.9972 32.274 25.0307 32.207 25.1311 31.8973L25.3153 31.3281L23.9676 29.6373L23.5658 31.529L21.0798 34.4754C20.293 35.4213 21.582 36.3421 22.2349 35.5636ZM28.3622 35.3125C28.8728 36.3588 30.4213 35.7143 29.8605 34.5759L28.1529 31.1189C28.019 30.8594 27.8348 30.5748 27.6758 30.3488L26.596 28.817L26.6713 28.5909C26.9643 27.7204 27.0731 27.2014 27.1317 26.3393L27.2991 23.9202C27.3828 22.7734 26.7048 21.9029 25.5329 21.9029C24.6456 21.9029 24.0513 22.3465 23.2394 23.1417L21.9587 24.4057C21.5402 24.8159 21.4063 25.1506 21.3644 25.6948L21.2053 27.6702C21.1635 28.1724 21.4397 28.524 21.9085 28.5407C22.3772 28.5742 22.6618 28.298 22.7037 27.7623L22.8878 25.5943L23.5073 25.0419C23.7249 24.8409 24.0178 24.9749 24.0011 25.2009L23.8672 27.0341C23.7918 27.9631 24.0095 28.4068 24.654 29.202L26.3448 31.3281C26.5206 31.5458 26.5374 31.6294 26.6127 31.7634L28.3622 35.3125ZM31.2668 25.1674H29.3415L28.1194 23.8198L27.9771 25.8371L28.4626 26.3226C28.7305 26.5904 28.9732 26.6741 29.467 26.6741H31.2668C31.7773 26.6741 32.1038 26.3895 32.1038 25.9208C32.1038 25.4687 31.769 25.1674 31.2668 25.1674ZM26.462 21.1496C27.4749 21.1496 28.2868 20.3292 28.2868 19.3248C28.2868 18.3119 27.4749 17.5 26.462 17.5C25.4492 17.5 24.6373 18.3119 24.6373 19.3248C24.6373 20.3292 25.4492 21.1496 26.462 21.1496Z" fill="white"/>
</svg>
