<svg width="53" height="53" viewBox="0 0 53 53" fill="none" xmlns="http://www.w3.org/2000/svg">
<path d="M20.0156 20.3107H24.8454C25.1384 20.3107 25.3728 20.0679 25.3728 19.7666C25.3728 19.4652 25.1384 19.2141 24.8454 19.2141H20.0156C19.7143 19.2141 19.4883 19.4652 19.4883 19.7666C19.4883 20.0679 19.7143 20.3107 20.0156 20.3107ZM17.019 24.5043H22.7528C23.0541 24.5043 23.2801 24.2616 23.2801 23.9602C23.2801 23.6589 23.0541 23.4078 22.7528 23.4078H17.019C16.726 23.4078 16.5 23.6672 16.5 23.9602C16.5 24.2532 16.726 24.5043 17.019 24.5043ZM19.5218 28.6979H22.7109C23.0039 28.6979 23.2299 28.4552 23.2299 28.1538C23.2299 27.8525 23.0039 27.6014 22.7109 27.6014H19.5218C19.2204 27.6014 18.9944 27.8525 18.9944 28.1538C18.9944 28.4552 19.2204 28.6979 19.5218 28.6979ZM17.3203 32.8413H21.6897C21.9827 32.8413 22.2087 32.5986 22.2087 32.2973C22.2087 31.9959 21.9827 31.7448 21.6897 31.7448H17.3203C17.0273 31.7448 16.8013 31.9959 16.8013 32.2973C16.8013 32.5986 17.0273 32.8413 17.3203 32.8413ZM26.5111 35.2772L29.0223 32.2806C29.2734 31.9876 29.3069 31.9206 29.4074 31.6108L29.5915 31.0417L28.2439 29.3508L27.8421 31.2426L25.356 34.189C24.5692 35.1348 25.8583 36.0556 26.5111 35.2772ZM32.6384 35.0261C33.149 36.0723 34.6976 35.4278 34.1367 34.2894L32.4291 30.8324C32.2952 30.5729 32.1111 30.2883 31.952 30.0623L30.8722 28.5306L30.9476 28.3045C31.2405 27.434 31.3494 26.915 31.4079 26.0528L31.5754 23.6338C31.6591 22.487 30.981 21.6165 29.8091 21.6165C28.9219 21.6165 28.3276 22.0601 27.5156 22.8553L26.2349 24.1193C25.8164 24.5294 25.6825 24.8642 25.6406 25.4083L25.4816 27.3838C25.4397 27.886 25.7159 28.2376 26.1847 28.2543C26.6534 28.2878 26.9381 28.0116 26.9799 27.4758L27.1641 25.3078L27.7835 24.7554C28.0011 24.5545 28.2941 24.6884 28.2774 24.9144L28.1434 26.7476C28.0681 27.6767 28.2857 28.1203 28.9302 28.9156L30.6211 31.0417C30.7969 31.2593 30.8136 31.343 30.8889 31.477L32.6384 35.0261ZM35.543 24.881H33.6177L32.3956 23.5333L32.2534 25.5506L32.7389 26.0361C33.0067 26.304 33.2494 26.3877 33.7433 26.3877H35.543C36.0536 26.3877 36.38 26.1031 36.38 25.6343C36.38 25.1823 36.0452 24.881 35.543 24.881ZM30.7383 20.8631C31.7511 20.8631 32.5631 20.0428 32.5631 19.0383C32.5631 18.0255 31.7511 17.2136 30.7383 17.2136C29.7254 17.2136 28.9135 18.0255 28.9135 19.0383C28.9135 20.0428 29.7254 20.8631 30.7383 20.8631Z" fill="white"/>
</svg>
