<svg width="40" height="40" viewBox="0 0 40 40" fill="none" xmlns="http://www.w3.org/2000/svg">
<g clip-path="url(#clip0_130_353)">
<path d="M14.9338 32.8687C15.2122 32.8687 15.468 32.7932 15.7012 32.6423C15.9344 32.4914 16.2202 32.2649 16.5588 31.963L20.4517 28.4878H27.6962C28.8171 28.4878 29.7612 28.2859 30.5285 27.8822C31.2957 27.4785 31.8768 26.8917 32.2718 26.122C32.6667 25.3522 32.8642 24.4126 32.8642 23.3032V14.6321C32.8642 13.5228 32.6667 12.5832 32.2718 11.8135C31.8768 11.0437 31.2957 10.4569 30.5285 10.0532C29.7612 9.64944 28.8171 9.44757 27.6962 9.44757H13.1623C12.0414 9.44757 11.0973 9.64944 10.3299 10.0532C9.56262 10.4569 8.9815 11.0437 8.58655 11.8135C8.19161 12.5832 7.99414 13.5228 7.99414 14.6321V23.3032C7.99414 24.4126 8.19161 25.3522 8.58655 26.122C8.9815 26.8917 9.56262 27.4785 10.3299 27.8822C11.0973 28.2859 12.0414 28.4878 13.1623 28.4878H13.7039V31.431C13.7039 31.8687 13.8111 32.2177 14.0255 32.4781C14.2399 32.7385 14.5427 32.8687 14.9338 32.8687ZM15.3965 30.7971V27.5142C15.3965 27.2048 15.3325 26.986 15.2047 26.8577C15.0768 26.7294 14.8586 26.6653 14.5502 26.6653H13.1623C12.0188 26.6653 11.1744 26.3804 10.629 25.8106C10.0836 25.2408 9.81088 24.4013 9.81088 23.292V14.6321C9.81088 13.5303 10.0836 12.6945 10.629 12.1247C11.1744 11.555 12.0188 11.2701 13.1623 11.2701H27.6962C28.8321 11.2701 29.6746 11.555 30.2238 12.1247C30.773 12.6945 31.0475 13.5303 31.0475 14.6321V23.292C31.0475 24.4013 30.773 25.2408 30.2238 25.8106C29.6746 26.3804 28.8321 26.6653 27.6962 26.6653H20.3841C20.0681 26.6653 19.8123 26.6992 19.6167 26.7672C19.4212 26.8351 19.218 26.9785 19.0074 27.1973L15.3965 30.7971ZM14.979 17.7565C14.979 18.3979 15.167 18.9394 15.5432 19.3809C15.9193 19.8223 16.4271 20.0431 17.0665 20.0431C17.2997 20.0431 17.5273 20.0148 17.7492 19.9582C17.9711 19.9016 18.1536 19.7789 18.2965 19.5903H18.3868C18.2514 19.9073 18.0727 20.1827 17.8508 20.4167C17.6289 20.6506 17.3881 20.843 17.1286 20.9939C16.8691 21.1448 16.6189 21.2543 16.3782 21.3222C16.1676 21.3751 16.0246 21.4487 15.9494 21.543C15.8742 21.6373 15.8366 21.7524 15.8366 21.8882C15.8366 22.0317 15.8874 22.1543 15.9889 22.2561C16.0905 22.358 16.224 22.4089 16.3895 22.4089C16.6754 22.4089 17.0101 22.3221 17.3938 22.1486C17.7774 21.975 18.1554 21.7147 18.5278 21.3675C18.9002 21.0204 19.2086 20.5808 19.4531 20.0487C19.6976 19.5167 19.8199 18.8922 19.8199 18.1753C19.8199 17.4055 19.5923 16.7622 19.1372 16.2452C18.682 15.7283 18.0896 15.4698 17.3599 15.4698C16.6829 15.4698 16.1168 15.683 15.6617 16.1094C15.2065 16.5358 14.979 17.0848 14.979 17.7565ZM21.0724 17.7565C21.0724 18.3979 21.2605 18.9394 21.6365 19.3809C22.0127 19.8223 22.5205 20.0431 23.1599 20.0431C23.3931 20.0431 23.6207 20.0148 23.8426 19.9582C24.0645 19.9016 24.247 19.7789 24.39 19.5903H24.4802C24.3448 19.9073 24.1661 20.1827 23.9442 20.4167C23.7222 20.6506 23.4815 20.843 23.222 20.9939C22.9625 21.1448 22.7123 21.2543 22.4716 21.3222C22.261 21.3751 22.1181 21.4487 22.0428 21.543C21.9675 21.6373 21.9299 21.7524 21.9299 21.8882C21.9299 22.0317 21.9807 22.1543 22.0823 22.2561C22.1839 22.358 22.3174 22.4089 22.4829 22.4089C22.7613 22.4089 23.0941 22.3221 23.4815 22.1486C23.8689 21.975 24.2488 21.7147 24.6212 21.3675C24.9935 21.0204 25.302 20.5808 25.5465 20.0487C25.791 19.5167 25.9132 18.8922 25.9132 18.1753C25.9132 17.4055 25.6857 16.7622 25.2306 16.2452C24.7755 15.7283 24.183 15.4698 23.4533 15.4698C22.7763 15.4698 22.2102 15.683 21.7551 16.1094C21.3 16.5358 21.0724 17.0848 21.0724 17.7565Z" fill="#FDFBFA" fill-opacity="0.85"/>
</g>
<defs>
<clipPath id="clip0_130_353">
<rect width="24.8701" height="24.8701" fill="white" transform="translate(8 8)"/>
</clipPath>
</defs>
</svg>
