<svg width="48" height="48" viewBox="0 0 48 48" fill="none" xmlns="http://www.w3.org/2000/svg">
<path d="M29.22 19.8204C29.22 20.1028 29.0403 20.3253 28.7493 20.3852L24.8386 21.241C24.4364 21.3265 24.3509 21.4207 24.3509 21.8742V29.7042C24.3509 32.1944 22.4682 33.1185 21.2103 33.1185C19.7898 33.1185 18.78 32.2029 18.78 30.8936C18.78 29.6015 19.5844 28.7286 21.2959 28.3692L22.6565 28.0868C23.033 28.0098 23.2298 27.736 23.1871 27.3167L23.1699 17.8009C23.1699 17.3217 23.4694 17.0222 24.0171 16.9024L28.4156 15.944C28.852 15.8584 29.22 16.1493 29.22 16.6029V19.8204Z" fill="white"/>
</svg>
