<svg width="133" height="81" viewBox="0 0 133 81" fill="none" xmlns="http://www.w3.org/2000/svg">
<g filter="url(#filter0_b_161_323)">
<rect width="133" height="81" rx="40.5" fill="white" fill-opacity="0.2"/>
<g clip-path="url(#clip0_161_323)">
<path d="M60.4175 41.4131C58.5996 41.4131 57.5786 40.5166 57.5786 38.7568V31.0122C57.5786 29.2524 58.6411 28.248 60.4175 28.248H68.5273C70.3452 28.248 71.3164 29.2524 71.3164 31.0039V38.6572C71.3164 40.4087 70.3037 41.4131 68.4775 41.4131H60.4175ZM72.5615 37.5947V32.1494L75.0601 30.0161C75.4419 29.6841 75.8154 29.4683 76.2056 29.4683C76.8779 29.4683 77.3511 29.9414 77.3511 30.6802V39.0723C77.3511 39.8027 76.8779 40.2759 76.2056 40.2759C75.8237 40.2759 75.4419 40.0601 75.0601 39.728L72.5615 37.5947Z" fill="white" fill-opacity="0.9"/>
</g>
<path d="M26.1157 56V50.6H27.1457C27.1457 50.95 27.1457 51.16 27.1357 51.5H27.1457C27.4557 50.9 27.9857 50.59 28.6257 50.59C28.7157 50.59 28.8157 50.59 28.9157 50.6V51.54H28.5457C27.6257 51.54 27.1457 52.24 27.1457 53.09V56H26.1157ZM32.2688 56.15C30.6588 56.15 29.5788 54.95 29.5788 53.31C29.5788 51.66 30.6688 50.44 32.2788 50.44C33.9088 50.44 34.8188 51.51 34.8188 53.15C34.8188 53.3 34.8088 53.43 34.7888 53.58H30.5788C30.6888 54.54 31.3388 55.23 32.3088 55.23C32.9888 55.23 33.5188 54.9 33.8288 54.28L34.6888 54.71C34.2088 55.68 33.3388 56.15 32.2688 56.15ZM30.6188 52.76H33.8588C33.7388 51.91 33.1988 51.36 32.2788 51.36C31.4088 51.36 30.8088 51.94 30.6188 52.76ZM38.3233 56.15C36.7033 56.15 35.6233 54.93 35.6233 53.29C35.6233 51.65 36.7033 50.44 38.3233 50.44C39.4333 50.44 40.2733 51 40.7233 51.99L39.8033 52.41C39.5133 51.78 39.0133 51.38 38.3233 51.38C37.2933 51.38 36.6333 52.21 36.6333 53.29C36.6333 54.36 37.2833 55.21 38.3233 55.21C39.0233 55.21 39.5233 54.8 39.8033 54.16L40.7333 54.57C40.2833 55.58 39.4433 56.15 38.3233 56.15ZM44.2028 56.15C42.5828 56.15 41.4628 54.92 41.4628 53.29C41.4628 51.66 42.5828 50.45 44.2028 50.45C45.8128 50.45 46.9328 51.66 46.9328 53.29C46.9328 54.91 45.8128 56.15 44.2028 56.15ZM44.2028 55.21C45.2228 55.21 45.8828 54.34 45.8828 53.29C45.8828 52.23 45.2328 51.38 44.2028 51.38C43.1628 51.38 42.5028 52.23 42.5028 53.29C42.5028 54.34 43.1628 55.21 44.2028 55.21ZM47.911 56V50.6H48.941C48.941 50.95 48.941 51.16 48.931 51.5H48.941C49.251 50.9 49.781 50.59 50.421 50.59C50.511 50.59 50.611 50.59 50.711 50.6V51.54H50.341C49.421 51.54 48.941 52.24 48.941 53.09V56H47.911ZM53.8541 56.13C52.4341 56.13 51.3741 54.92 51.3741 53.3C51.3741 51.68 52.4041 50.47 53.8541 50.47C54.6541 50.47 55.3441 50.78 55.6941 51.43H55.7041C55.6941 51.08 55.6941 50.94 55.6941 50.52V48.76H56.7241V56H55.6941C55.6941 55.67 55.6941 55.48 55.7041 55.16H55.6941C55.3241 55.77 54.6441 56.13 53.8541 56.13ZM54.0541 55.2C55.0741 55.2 55.7341 54.42 55.7341 53.31C55.7341 52.18 55.0641 51.42 54.0541 51.42C53.0641 51.42 52.4041 52.24 52.4041 53.31C52.4041 54.38 53.0641 55.2 54.0541 55.2ZM62.2322 56.14C60.7822 56.14 59.7522 54.95 59.7522 53.32C59.7522 51.7 60.8122 50.48 62.2322 50.48C63.0622 50.48 63.7022 50.82 64.0622 51.48H64.0822C64.0722 51.17 64.0722 50.97 64.0722 50.6H65.1022V56H64.0722C64.0722 55.63 64.0722 55.49 64.0822 55.14H64.0622C63.6822 55.76 62.9922 56.14 62.2322 56.14ZM62.4322 55.2C63.4522 55.2 64.1122 54.44 64.1122 53.31C64.1122 52.2 63.4422 51.42 62.4322 51.42C61.4422 51.42 60.7822 52.25 60.7822 53.32C60.7822 54.39 61.4422 55.2 62.4322 55.2ZM68.2704 56V50.6H69.3004C69.3004 50.97 69.3004 51.12 69.2904 51.47H69.3104C69.6404 50.84 70.2004 50.47 70.9204 50.47C71.7104 50.47 72.2104 50.88 72.4504 51.46H72.4704C72.8004 50.83 73.4004 50.47 74.1504 50.47C75.4804 50.47 76.0304 51.42 76.0304 52.58V56H75.0004V52.8C75.0004 51.98 74.6104 51.4 73.8604 51.4C73.0804 51.4 72.6704 51.98 72.6704 52.8V56H71.6404V52.8C71.6404 51.98 71.2304 51.4 70.5204 51.4C69.7804 51.4 69.3004 52.08 69.3004 52.84V56H68.2704ZM79.6871 56.15C78.0771 56.15 76.9971 54.95 76.9971 53.31C76.9971 51.66 78.0871 50.44 79.6971 50.44C81.3271 50.44 82.2371 51.51 82.2371 53.15C82.2371 53.3 82.2271 53.43 82.2071 53.58H77.9971C78.1071 54.54 78.7571 55.23 79.7271 55.23C80.4071 55.23 80.9371 54.9 81.2471 54.28L82.1071 54.71C81.6271 55.68 80.7571 56.15 79.6871 56.15ZM78.0371 52.76H81.2771C81.1571 51.91 80.6171 51.36 79.6971 51.36C78.8271 51.36 78.2271 51.94 78.0371 52.76ZM83.1817 56V50.6H84.2117C84.2117 50.97 84.2117 51.12 84.2017 51.47H84.2217C84.5517 50.84 85.1117 50.47 85.8317 50.47C86.6217 50.47 87.1217 50.88 87.3617 51.46H87.3817C87.7117 50.83 88.3117 50.47 89.0617 50.47C90.3917 50.47 90.9417 51.42 90.9417 52.58V56H89.9117V52.8C89.9117 51.98 89.5217 51.4 88.7717 51.4C87.9917 51.4 87.5817 51.98 87.5817 52.8V56H86.5517V52.8C86.5517 51.98 86.1417 51.4 85.4317 51.4C84.6917 51.4 84.2117 52.08 84.2117 52.84V56H83.1817ZM94.6485 56.15C93.0285 56.15 91.9085 54.92 91.9085 53.29C91.9085 51.66 93.0285 50.45 94.6485 50.45C96.2585 50.45 97.3785 51.66 97.3785 53.29C97.3785 54.91 96.2585 56.15 94.6485 56.15ZM94.6485 55.21C95.6685 55.21 96.3285 54.34 96.3285 53.29C96.3285 52.23 95.6785 51.38 94.6485 51.38C93.6085 51.38 92.9485 52.23 92.9485 53.29C92.9485 54.34 93.6085 55.21 94.6485 55.21ZM98.3567 56V50.6H99.3867C99.3867 50.95 99.3867 51.16 99.3767 51.5H99.3867C99.6967 50.9 100.227 50.59 100.867 50.59C100.957 50.59 101.057 50.59 101.157 50.6V51.54H100.787C99.8667 51.54 99.3867 52.24 99.3867 53.09V56H98.3567ZM103.02 57.84L103.85 55.91L101.69 50.6H102.82L104.4 54.74L106.01 50.6H107.15L104.16 57.84H103.02Z" fill="white"/>
</g>
<defs>
<filter id="filter0_b_161_323" x="-135.91" y="-135.91" width="404.82" height="352.82" filterUnits="userSpaceOnUse" color-interpolation-filters="sRGB">
<feFlood flood-opacity="0" result="BackgroundImageFix"/>
<feGaussianBlur in="BackgroundImageFix" stdDeviation="67.955"/>
<feComposite in2="SourceAlpha" operator="in" result="effect1_backgroundBlur_161_323"/>
<feBlend mode="normal" in="SourceGraphic" in2="effect1_backgroundBlur_161_323" result="shape"/>
</filter>
<clipPath id="clip0_161_323">
<rect width="24" height="24" fill="white" transform="translate(54.5 22)"/>
</clipPath>
</defs>
</svg>
