<svg width="40" height="40" viewBox="0 0 40 40" fill="none" xmlns="http://www.w3.org/2000/svg">
<path d="M15.2947 14.1442H30.3443C30.5941 14.1442 30.8052 14.0569 30.9778 13.8824C31.1504 13.7079 31.2367 13.4917 31.2367 13.2337C31.2367 12.9758 31.1504 12.7576 30.9778 12.5793C30.8052 12.401 30.5941 12.3119 30.3443 12.3119H15.2947C15.045 12.3119 14.8338 12.401 14.6612 12.5793C14.4886 12.7576 14.4023 12.9758 14.4023 13.2337C14.4023 13.4917 14.4886 13.7079 14.6612 13.8824C14.8338 14.0569 15.045 14.1442 15.2947 14.1442ZM15.2947 21.0294H30.3443C30.5941 21.0294 30.8052 20.9403 30.9778 20.762C31.1504 20.5837 31.2367 20.3656 31.2367 20.1076C31.2367 19.8497 31.1504 19.6334 30.9778 19.4589C30.8052 19.2844 30.5941 19.1972 30.3443 19.1972H15.2947C15.045 19.1972 14.8338 19.2844 14.6612 19.4589C14.4886 19.6334 14.4023 19.8497 14.4023 20.1076C14.4023 20.3656 14.4886 20.5837 14.6612 20.762C14.8338 20.9403 15.045 21.0294 15.2947 21.0294ZM15.2947 27.9033H30.3443C30.5941 27.9033 30.8052 27.8161 30.9778 27.6416C31.1504 27.4671 31.2367 27.2508 31.2367 26.9928C31.2367 26.7349 31.1504 26.5168 30.9778 26.3385C30.8052 26.1602 30.5941 26.071 30.3443 26.071H15.2947C15.045 26.071 14.8338 26.1602 14.6612 26.3385C14.4886 26.5168 14.4023 26.7349 14.4023 26.9928C14.4023 27.2508 14.4886 27.4671 14.6612 27.6416C14.8338 27.8161 15.045 27.9033 15.2947 27.9033Z" fill="white"/>
<path d="M10.4272 14.6558C10.8092 14.6558 11.136 14.5173 11.4078 14.2404C11.6795 13.9635 11.8154 13.6277 11.8154 13.2332C11.8154 12.8311 11.6795 12.4916 11.4078 12.2146C11.136 11.9377 10.8092 11.7993 10.4272 11.7993C10.0453 11.7993 9.71846 11.9377 9.4467 12.2146C9.17494 12.4916 9.03906 12.8311 9.03906 13.2332C9.03906 13.6277 9.17494 13.9635 9.4467 14.2404C9.71846 14.5173 10.0453 14.6558 10.4272 14.6558ZM10.4272 21.5411C10.8092 21.5411 11.136 21.4007 11.4078 21.12C11.6795 20.8393 11.8154 20.5016 11.8154 20.1071C11.8154 19.7126 11.6795 19.3749 11.4078 19.0942C11.136 18.8135 10.8092 18.6731 10.4272 18.6731C10.0453 18.6731 9.71846 18.8135 9.4467 19.0942C9.17494 19.3749 9.03906 19.7126 9.03906 20.1071C9.03906 20.5016 9.17494 20.8393 9.4467 21.12C9.71846 21.4007 10.0453 21.5411 10.4272 21.5411ZM10.4272 28.4263C10.8092 28.4263 11.136 28.286 11.4078 28.0053C11.6795 27.7246 11.8154 27.3869 11.8154 26.9923C11.8154 26.5903 11.6795 26.2508 11.4078 25.9738C11.136 25.6969 10.8092 25.5584 10.4272 25.5584C10.0453 25.5584 9.71846 25.6969 9.4467 25.9738C9.17494 26.2508 9.03906 26.5903 9.03906 26.9923C9.03906 27.3869 9.17494 27.7246 9.4467 28.0053C9.71846 28.286 10.0453 28.4263 10.4272 28.4263Z" fill="white"/>
</svg>
