<svg width="24" height="24" viewBox="0 0 24 24" fill="none" xmlns="http://www.w3.org/2000/svg">
<path d="M5.41748 18.9131C3.59961 18.9131 2.57861 18.0166 2.57861 16.2568V8.51221C2.57861 6.75244 3.64111 5.74805 5.41748 5.74805H13.5273C15.3452 5.74805 16.3164 6.75244 16.3164 8.50391V16.1572C16.3164 17.9087 15.3037 18.9131 13.4775 18.9131H5.41748ZM17.5615 15.0947V9.64941L20.0601 7.51611C20.4419 7.18408 20.8154 6.96826 21.2056 6.96826C21.8779 6.96826 22.3511 7.44141 22.3511 8.18018V16.5723C22.3511 17.3027 21.8779 17.7759 21.2056 17.7759C20.8237 17.7759 20.4419 17.5601 20.0601 17.228L17.5615 15.0947Z" fill="white" fill-opacity="0.9"/>
</svg>
