<svg width="48" height="48" viewBox="0 0 48 48" fill="none" xmlns="http://www.w3.org/2000/svg">
<path d="M17.9521 36.7266C16.8278 36.7266 15.9827 36.4473 15.417 35.8887C14.8584 35.3372 14.5791 34.5065 14.5791 33.3965V21.2148C14.5791 20.1048 14.8584 19.2741 15.417 18.7227C15.9827 18.1641 16.8278 17.8848 17.9521 17.8848H30.0479C31.165 17.8848 32.0065 18.1641 32.5723 18.7227C33.138 19.2741 33.4209 20.1048 33.4209 21.2148V33.3965C33.4209 34.4993 33.1523 35.3301 32.6152 35.8887C32.0781 36.4473 31.3298 36.7266 30.3701 36.7266H17.9521ZM17.9736 34.9971H30.3379C30.7103 34.9971 31.029 34.8538 31.2939 34.5674C31.5589 34.2809 31.6914 33.8584 31.6914 33.2998V21.3008C31.6914 20.7493 31.5446 20.3304 31.251 20.0439C30.9574 19.7575 30.5456 19.6143 30.0156 19.6143H17.9736C17.4365 19.6143 17.0247 19.7575 16.7383 20.0439C16.4518 20.3304 16.3086 20.7493 16.3086 21.3008V33.2998C16.3086 33.8584 16.4518 34.2809 16.7383 34.5674C17.0247 34.8538 17.4365 34.9971 17.9736 34.9971ZM16.9209 16.1553C16.9997 15.6683 17.168 15.2959 17.4258 15.0381C17.6836 14.7731 18.0811 14.6406 18.6182 14.6406H29.3711C29.9082 14.6406 30.3057 14.7731 30.5635 15.0381C30.8213 15.2959 30.9896 15.6683 31.0684 16.1553H16.9209ZM18.79 13.1797C18.8187 12.7214 18.9619 12.3776 19.2197 12.1484C19.4847 11.9121 19.8643 11.7939 20.3584 11.7939H27.6309C28.125 11.7939 28.501 11.9121 28.7588 12.1484C29.0238 12.3776 29.1742 12.7214 29.21 13.1797H18.79Z" fill="white"/>
</svg>
