<svg width="40" height="48" viewBox="0 0 40 48" fill="none" xmlns="http://www.w3.org/2000/svg">
<g clip-path="url(#clip0_296_323)">
<path d="M26.1538 9C28.7029 9 30.7692 6.98531 30.7692 4.5C30.7692 2.01469 28.7029 0 26.1538 0C23.6048 0 21.5385 2.01469 21.5385 4.5C21.5385 6.98531 23.6048 9 26.1538 9ZM10.9317 29.7628L9.50865 32.9991H3.07692C1.37788 32.9991 0 34.3425 0 35.9991C0 37.6556 1.37788 38.9991 3.07692 38.9991H10.524C12.375 38.9991 14.0413 37.9266 14.7654 36.2719L15.6106 34.3481L14.5846 33.7575C12.9192 32.7984 11.6942 31.3791 10.9317 29.7628ZM36.9231 20.9991H32.6894L30.1837 16.0069C28.9817 13.6116 26.775 11.8603 24.2433 11.2313L17.4087 9.24938C14.6875 8.61188 11.8538 9.19781 9.63558 10.8563L5.82115 13.7072C4.47212 14.715 4.21635 16.5975 5.25192 17.9128C6.2875 19.2281 8.21731 19.4747 9.56539 18.4678L13.3817 15.6169C14.1192 15.0647 15.0587 14.8669 15.8115 15.0413L17.225 15.4509L13.6231 23.6437C12.4096 26.4075 13.4971 29.6447 16.1519 31.1728L24.3231 35.8762L21.6817 44.1009C21.174 45.6816 22.0769 47.3644 23.6981 47.8594C24.0048 47.9531 24.3144 47.9981 24.6192 47.9981C25.9279 47.9981 27.1413 47.1759 27.5538 45.8934L30.5962 36.4191C31.1644 34.4719 30.3183 32.3803 28.5154 31.32L22.6269 27.9319L25.6375 20.5931L27.5865 24.4772C28.3558 26.0091 29.9827 26.9981 31.7317 26.9981H36.9231C38.6221 26.9981 40 25.6547 40 23.9981C40 22.3416 38.6221 20.9991 36.9231 20.9991Z" fill="white"/>
</g>
<defs>
<clipPath id="clip0_296_323">
<rect width="40" height="48" fill="white"/>
</clipPath>
</defs>
</svg>
