<svg width="48" height="48" viewBox="0 0 48 48" fill="none" xmlns="http://www.w3.org/2000/svg">
<path d="M12.8604 34.1484C11.736 34.1484 10.891 33.8691 10.3252 33.3105C9.7666 32.7591 9.4873 31.9284 9.4873 30.8184V17.7021C9.4873 16.5921 9.7666 15.7614 10.3252 15.21C10.891 14.6514 11.736 14.3721 12.8604 14.3721H35.1504C36.2747 14.3721 37.1162 14.6514 37.6748 15.21C38.2334 15.7614 38.5127 16.5921 38.5127 17.7021V30.8184C38.5127 31.9284 38.2334 32.7591 37.6748 33.3105C37.1162 33.8691 36.2747 34.1484 35.1504 34.1484H12.8604ZM12.8818 32.4189H35.1182C35.6481 32.4189 36.0563 32.2793 36.3428 32C36.6364 31.7135 36.7832 31.291 36.7832 30.7324V17.7881C36.7832 17.2295 36.6364 16.8105 36.3428 16.5312C36.0563 16.2448 35.6481 16.1016 35.1182 16.1016H12.8818C12.3447 16.1016 11.9329 16.2448 11.6465 16.5312C11.36 16.8105 11.2168 17.2295 11.2168 17.7881V30.7324C11.2168 31.291 11.36 31.7135 11.6465 32C11.9329 32.2793 12.3447 32.4189 12.8818 32.4189ZM9.4873 29.0352V27.5205H13.8594C14.3607 27.5205 14.6113 27.2663 14.6113 26.7578V21.752C14.6113 21.2435 14.3607 20.9893 13.8594 20.9893H9.4873V19.4746H13.8701C14.5863 19.4746 15.1413 19.6715 15.5352 20.0654C15.929 20.4521 16.126 21 16.126 21.709V26.8008C16.126 27.5026 15.929 28.0505 15.5352 28.4443C15.1413 28.8382 14.5863 29.0352 13.8701 29.0352H9.4873ZM23.2158 32.6982V15.8223H24.7305V32.6982H23.2158ZM23.957 29.3252C22.9688 29.3252 22.0915 29.1139 21.3252 28.6914C20.5661 28.2617 19.9717 27.6673 19.542 26.9082C19.1195 26.1419 18.9082 25.2575 18.9082 24.2549C18.9082 23.2451 19.1195 22.3607 19.542 21.6016C19.9717 20.8353 20.5661 20.2409 21.3252 19.8184C22.0915 19.3887 22.9688 19.181 23.957 19.1953C24.9525 19.2025 25.8298 19.4209 26.5889 19.8506C27.348 20.2803 27.9424 20.8747 28.3721 21.6338C28.8089 22.3929 29.0309 23.2666 29.0381 24.2549C29.0524 25.2575 28.8447 26.1419 28.415 26.9082C27.9854 27.6673 27.3874 28.2617 26.6211 28.6914C25.8548 29.1139 24.9668 29.3252 23.957 29.3252ZM23.9678 27.8857C24.6768 27.8857 25.3034 27.7318 25.8477 27.4238C26.3991 27.1159 26.8288 26.6898 27.1367 26.1455C27.4447 25.5941 27.6022 24.9603 27.6094 24.2441C27.6094 23.5352 27.4554 22.9085 27.1475 22.3643C26.8395 21.82 26.4098 21.3975 25.8584 21.0967C25.3141 20.7887 24.6839 20.6348 23.9678 20.6348C23.2588 20.6348 22.6286 20.7887 22.0771 21.0967C21.5329 21.3975 21.1068 21.82 20.7988 22.3643C20.4909 22.9085 20.3369 23.5352 20.3369 24.2441C20.3369 24.9603 20.4909 25.5941 20.7988 26.1455C21.1068 26.6898 21.5329 27.1159 22.0771 27.4238C22.6286 27.7318 23.2588 27.8857 23.9678 27.8857ZM38.5127 29.0352H34.1299C33.4137 29.0352 32.8587 28.8382 32.4648 28.4443C32.0781 28.0505 31.8848 27.5026 31.8848 26.8008V21.709C31.8848 21 32.0781 20.4521 32.4648 20.0654C32.8587 19.6715 33.4137 19.4746 34.1299 19.4746H38.5127V20.9893H34.1406C33.6465 20.9893 33.3994 21.2435 33.3994 21.752V26.7578C33.3994 27.2663 33.6465 27.5205 34.1406 27.5205H38.5127V29.0352Z" fill="white"/>
</svg>
