<svg width="13" height="7" viewBox="0 0 13 7" fill="none" xmlns="http://www.w3.org/2000/svg">
<path d="M12.7712 6.72584C12.9318 6.56719 13.0078 6.35896 12.9994 6.10114C12.991 5.84339 12.9022 5.63122 12.7331 5.46462L7.74919 0.502733C7.52938 0.280617 7.26727 0.131881 6.96288 0.0565239C6.65852 -0.0188413 6.35416 -0.0188413 6.0498 0.0565239C5.74543 0.131881 5.48334 0.280617 5.26352 0.502733L0.292258 5.46462C0.106261 5.64706 0.00903413 5.85923 0.000575817 6.10114C-0.00787384 6.34312 0.0766705 6.54742 0.254208 6.71402C0.431755 6.89646 0.655801 6.99162 0.926346 6.9995C1.19689 7.00746 1.42517 6.92022 1.61117 6.73778L6.50634 1.84731L11.4141 6.73778C11.5917 6.91226 11.8158 6.9995 12.0863 6.9995C12.3568 6.9995 12.5851 6.90828 12.7712 6.72584Z" fill="#D7D7D7"/>
</svg>
