<svg width="40" height="40" viewBox="0 0 40 40" fill="none" xmlns="http://www.w3.org/2000/svg">
<path d="M17.4436 28.2182C17.7666 28.2182 18.0298 28.1189 18.2332 27.9202C18.4367 27.7216 18.5384 27.4733 18.5384 27.1753V12.8917C18.5384 12.5875 18.4351 12.3283 18.2284 12.1142C18.0218 11.9 17.7537 11.7929 17.4243 11.7929C17.1982 11.7929 16.9948 11.8426 16.8139 11.9419C16.6331 12.0412 16.42 12.2057 16.1745 12.4354L12.0474 16.16C11.9829 16.2158 11.9021 16.2438 11.8052 16.2438H9.0248C8.37247 16.2438 7.87192 16.416 7.52315 16.7605C7.17438 17.1051 7 17.6125 7 18.2829V21.7468C7 22.4234 7.17438 22.9324 7.52315 23.2738C7.87192 23.6152 8.37247 23.7859 9.0248 23.7859H11.8052C11.9021 23.7859 11.9829 23.8139 12.0474 23.8697L16.1745 27.6315C16.3941 27.8364 16.604 27.9854 16.8043 28.0785C17.0044 28.1716 17.2176 28.2182 17.4436 28.2182ZM21.9873 23.9629C22.1552 24.0684 22.3393 24.1041 22.5396 24.07C22.7398 24.0358 22.9045 23.9288 23.0336 23.7487C23.4082 23.277 23.7005 22.7121 23.9104 22.054C24.1203 21.3961 24.2253 20.7101 24.2253 19.9962C24.2253 19.2824 24.1203 18.5964 23.9104 17.9384C23.7005 17.2804 23.4082 16.7155 23.0336 16.2438C22.9045 16.0637 22.7398 15.9551 22.5396 15.9179C22.3393 15.8806 22.1552 15.9179 21.9873 16.0296C21.7936 16.16 21.6822 16.3291 21.6531 16.5371C21.6241 16.745 21.687 16.9452 21.842 17.1376C22.1262 17.5101 22.3442 17.9446 22.4959 18.4412C22.6477 18.9378 22.7236 19.4562 22.7236 19.9962C22.7236 20.5363 22.6461 21.0531 22.4911 21.5466C22.3361 22.0401 22.1198 22.4762 21.842 22.8549C21.6934 23.0535 21.6321 23.2552 21.658 23.46C21.6838 23.6649 21.7936 23.8325 21.9873 23.9629ZM25.5912 26.3931C25.7721 26.5049 25.9627 26.5437 26.1629 26.5096C26.3631 26.4754 26.5278 26.3683 26.657 26.1883C27.277 25.3689 27.7598 24.4191 28.1053 23.339C28.4509 22.2589 28.6236 21.1447 28.6236 19.9962C28.6236 18.8478 28.4525 17.7305 28.1102 16.6441C27.7678 15.5578 27.2834 14.6112 26.657 13.8042C26.5278 13.6242 26.3631 13.5155 26.1629 13.4783C25.9627 13.441 25.7721 13.4814 25.5912 13.5993C25.4169 13.7173 25.3152 13.874 25.2861 14.0696C25.257 14.2651 25.3136 14.4591 25.4556 14.6515C25.9852 15.3716 26.3954 16.1941 26.6861 17.119C26.9767 18.044 27.122 19.003 27.122 19.9962C27.122 20.9894 26.9751 21.9469 26.6812 22.8688C26.3873 23.7906 25.9788 24.6147 25.4556 25.341C25.32 25.5334 25.2651 25.7273 25.2909 25.9229C25.3168 26.1185 25.4169 26.2752 25.5912 26.3931ZM29.2242 28.8607C29.3922 28.9786 29.5795 29.0158 29.7862 28.9724C29.9928 28.9289 30.1608 28.8141 30.29 28.6279C30.8583 27.8395 31.3443 26.9875 31.748 26.0719C32.1516 25.1563 32.4617 24.1895 32.6781 23.1714C32.8944 22.1533 33.0026 21.095 33.0026 19.9962C33.0026 18.8975 32.8928 17.8391 32.6732 16.8211C32.4536 15.803 32.1404 14.8362 31.7334 13.9206C31.3266 13.005 30.8454 12.153 30.29 11.3646C30.1608 11.1722 29.9928 11.0558 29.7862 11.0154C29.5795 10.9751 29.3922 11.0139 29.2242 11.1318C29.0434 11.2498 28.9401 11.4081 28.9142 11.6067C28.8884 11.8053 28.9433 12.0009 29.079 12.1933C29.5763 12.9072 30.0074 13.6754 30.3723 14.4979C30.7372 15.3204 31.0198 16.1925 31.22 17.1144C31.4202 18.0362 31.5203 18.9968 31.5203 19.9962C31.5203 20.9894 31.4202 21.9469 31.22 22.8688C31.0198 23.7906 30.7372 24.6659 30.3723 25.4946C30.0074 26.3233 29.5763 27.0915 29.079 27.7991C28.9433 27.9854 28.8884 28.1794 28.9142 28.3811C28.9401 28.5829 29.0434 28.7427 29.2242 28.8607Z" fill="#FDFBFA" fill-opacity="0.85"/>
</svg>
