<svg width="48" height="48" viewBox="0 0 48 48" fill="none" xmlns="http://www.w3.org/2000/svg">
<path d="M7.8 9H4.2C3.2025 9 2.4 10.0031 2.4 11.25V21H0.6C0.27 21 0 21.3375 0 21.75V26.25C0 26.6625 0.27 27 0.6 27H2.4V36.75C2.4 37.9969 3.2025 39 4.2 39H7.8C8.7975 39 9.6 37.9969 9.6 36.75V11.25C9.6 10.0031 8.7975 9 7.8 9ZM47.4 21H45.6V11.25C45.6 10.0031 44.7975 9 43.8 9H40.2C39.2025 9 38.4 10.0031 38.4 11.25V36.75C38.4 37.9969 39.2025 39 40.2 39H43.8C44.7975 39 45.6 37.9969 45.6 36.75V27H47.4C47.73 27 48 26.6625 48 26.25V21.75C48 21.3375 47.73 21 47.4 21ZM34.2 3H30.6C29.6025 3 28.8 4.00312 28.8 5.25V21H19.2V5.25C19.2 4.00312 18.3975 3 17.4 3H13.8C12.8025 3 12 4.00312 12 5.25V42.75C12 43.9969 12.8025 45 13.8 45H17.4C18.3975 45 19.2 43.9969 19.2 42.75V27H28.8V42.75C28.8 43.9969 29.6025 45 30.6 45H34.2C35.1975 45 36 43.9969 36 42.75V5.25C36 4.00312 35.1975 3 34.2 3Z" fill="white"/>
</svg>
